<?xml version="1.0" encoding="UTF-8" standalone="no"?>
<svg
   viewBox="0 0 384 512"
   version="1.1"
   id="svg1"
   sodipodi:docname="icon.svg"
   inkscape:version="1.3 (0e150ed6c4, 2023-07-21)"
   xmlns:inkscape="http://www.inkscape.org/namespaces/inkscape"
   xmlns:sodipodi="http://sodipodi.sourceforge.net/DTD/sodipodi-0.dtd"
   xmlns="http://www.w3.org/2000/svg"
   xmlns:svg="http://www.w3.org/2000/svg">
  <defs
     id="defs1" />
  <sodipodi:namedview
     id="namedview1"
     pagecolor="#ffffff"
     bordercolor="#000000"
     borderopacity="0.25"
     inkscape:showpageshadow="2"
     inkscape:pageopacity="0.0"
     inkscape:pagecheckerboard="0"
     inkscape:deskcolor="#d1d1d1"
     inkscape:zoom="2.0292969"
     inkscape:cx="192.18479"
     inkscape:cy="255.75361"
     inkscape:window-width="2530"
     inkscape:window-height="1387"
     inkscape:window-x="0"
     inkscape:window-y="0"
     inkscape:window-maximized="1"
     inkscape:current-layer="svg1" />
  <!--! Font Awesome Pro 6.4.2 by @fontawesome - https://fontawesome.com License - https://fontawesome.com/license (Commercial License) Copyright 2023 Fonticons, Inc. -->
  <path
     d="M 64,0 C 28.7,0 0,28.7 0,64 v 384 c 0,35.3 28.7,64 64,64 h 256 c 35.3,0 64,-28.7 64,-64 V 64 C 384,28.7 355.3,0 320,0 Z m 32,64 h 192 c 17.7,0 32,14.3 32,32 v 32 c 0,17.7 -14.3,32 -32,32 H 96 C 78.3,160 64,145.7 64,128 V 96 C 64,78.3 78.3,64 96,64 Z m 32,160 a 32,32 0 1 1 -64,0 32,32 0 1 1 64,0 z M 96,352 a 32,32 0 1 1 0,-64 32,32 0 1 1 0,64 z m -32,64 c 0,-17.7 14.3,-32 32,-32 h 96 c 17.7,0 32,14.3 32,32 0,17.7 -14.3,32 -32,32 H 96 C 78.3,448 64,433.7 64,416 Z M 192,256 a 32,32 0 1 1 0,-64 32,32 0 1 1 0,64 z m 32,64 a 32,32 0 1 1 -64,0 32,32 0 1 1 64,0 z m 64,-64 a 32,32 0 1 1 0,-64 32,32 0 1 1 0,64 z m 32,64 a 32,32 0 1 1 -64,0 32,32 0 1 1 64,0 z m -32,128 a 32,32 0 1 1 0,-64 32,32 0 1 1 0,64 z"
     id="path1"
     style="mix-blend-mode:normal" />
  <path
     style="fill:none;stroke-width:0.493;stroke-dasharray:none"
     d="M 59.133782,511.47736 C 43.563536,510.21579 30.430366,504.08696 19.171696,492.82829 9.4517009,483.10831 3.7544062,472.32186 1.1246399,458.66056 0.2911847,454.33087 0.24639076,443.99444 0.24639076,256 0.24639076,70.853591 0.30170509,57.609984 1.0924279,53.438012 3.6657063,39.86101 9.4549483,28.888443 19.171696,19.171696 26.810576,11.532816 34.754366,6.5852878 44.487277,3.4047205 54.722333,0.06005977 43.304537,0.32358499 186.51781,0.12662578 c 86.33837,-0.11873995 131.99693,-0.00763 136.7773,0.33284573 4.34587,0.30952928 9.01712,0.97818429 11.8449,1.69550939 26.1547,6.6346847 45.23108,28.4571611 48.20714,55.1466841 0.74492,6.680486 0.74492,390.716185 0,397.396665 -2.96955,26.6312 -22.07884,48.51868 -48.12969,55.12703 -2.56754,0.6513 -7.58235,1.40654 -11.14401,1.67821 -7.66436,0.58474 -257.705014,0.55995 -264.939668,-0.0262 z M 196.0197,447.93471 c 10.76234,-1.39772 20.00823,-7.92522 24.73168,-17.46029 2.67342,-5.39676 3.63363,-10.05831 3.30505,-16.04516 -0.74638,-13.5995 -8.98985,-24.5194 -22.01601,-29.16398 l -3.20308,-1.14208 -53.2204,-0.13948 c -59.750948,-0.15659 -56.8703,-0.31131 -64.449358,3.46139 -4.76197,2.37041 -10.55271,7.8051 -13.086336,12.28171 -9.931489,17.54773 -1.87087,39.71786 16.92058,46.53879 1.75547,0.6372 4.580932,1.35776 6.2788,1.60124 4.184149,0.60002 100.162664,0.66221 104.739074,0.0679 z m 100.38838,-0.81543 c 4.60257,-1.14743 10.31756,-4.42602 14.03379,-8.05095 10.11735,-9.86878 12.59502,-24.51722 6.33462,-37.45139 -2.66122,-5.49816 -8.74405,-11.71633 -13.94987,-14.26027 -11.6837,-5.70949 -25.03794,-4.41678 -34.73043,3.36196 -7.42606,5.95981 -11.54521,13.81262 -12.18788,23.23517 -1.15437,16.92499 10.90875,31.60948 27.93385,34.00397 3.39513,0.47751 8.70959,0.12289 12.56592,-0.83849 z m -191.9384,-95.99803 c 9.83805,-2.64103 18.16012,-10.40062 21.95942,-20.4752 1.27574,-3.38288 1.39206,-4.252 1.41662,-10.58445 0.0244,-6.28736 -0.0901,-7.21935 -1.29135,-10.5133 -4.67584,-12.82165 -15.53861,-20.92471 -28.982752,-21.61964 -24.815083,-1.28269 -41.448267,24.57418 -30.180335,46.91638 4.217796,8.36311 13.092574,15.01559 22.392943,16.78563 4.176812,0.79492 10.665094,0.56985 14.685454,-0.50942 z m 96.83455,-0.28329 c 5.32874,-1.62382 9.43359,-4.1428 13.60796,-8.35065 9.81087,-9.88958 12.05117,-24.19757 5.78751,-36.96277 -2.91254,-5.93571 -8.46976,-11.49589 -14.26929,-14.27692 -9.64425,-4.62466 -19.5627,-4.60441 -29.02295,0.0593 -3.28552,1.61968 -5.03083,2.91623 -8.13789,6.04545 -6.67133,6.71891 -9.36685,13.36371 -9.31219,22.95565 0.0278,4.87266 0.22798,6.24389 1.42835,9.78281 1.48475,4.37734 3.91098,8.52713 6.95625,11.89788 4.14237,4.58511 11.67925,8.69574 18.03043,9.83383 3.86532,0.69265 10.96388,0.22459 14.93182,-0.98455 z m 96.91156,-0.31093 c 15.25403,-5.04151 24.53239,-20.93957 21.38836,-36.64797 -1.32413,-6.61571 -4.05241,-11.70282 -8.84863,-16.49904 -6.3331,-6.3331 -14.03272,-9.5785 -22.72472,-9.5785 -14.96114,0 -28.51191,10.89667 -31.53834,25.36114 -3.77915,18.06198 7.95219,35.35915 26.24754,38.70043 4.0897,0.7469 10.97084,0.15284 15.47579,-1.33606 z M 102.73081,255.50158 c 7.14,-1.51244 14.14163,-5.87045 18.53436,-11.5363 4.72454,-6.09382 6.83798,-12.25288 6.85074,-19.9646 0.015,-9.07225 -2.83304,-15.93324 -9.34284,-22.50709 -3.38991,-3.42325 -5.01036,-4.63847 -8.39001,-6.29192 -15.740279,-7.70069 -34.849853,-1.64332 -42.739773,13.5477 -2.744005,5.28323 -3.706979,9.22205 -3.720979,15.21983 -0.01382,5.9226 0.933806,9.85394 3.622876,15.02984 6.632657,12.76648 21.003639,19.50667 35.185626,16.50254 z m 96.10653,0.006 c 5.83115,-1.22006 11.22076,-4.22632 15.81692,-8.82249 6.29445,-6.29445 9.54422,-14.02911 9.54422,-22.71585 0,-8.692 -3.2454,-16.39162 -9.5785,-22.72472 -4.79736,-4.79736 -9.883,-7.52442 -16.50317,-8.84946 -15.80032,-3.16248 -31.76333,6.23903 -36.81075,21.67991 -1.81311,5.54658 -1.9149,13.58422 -0.24076,19.01073 2.66524,8.63907 8.79641,15.98105 16.40012,19.63891 6.90737,3.32287 14.23264,4.27673 21.37192,2.78297 z m 98.82376,-0.7373 c 5.04089,-1.68342 9.31082,-4.32572 13.07792,-8.09282 6.37213,-6.37213 9.31615,-13.54821 9.31615,-22.70822 0,-6.2287 -1.12475,-10.70908 -3.98094,-15.85787 -6.55704,-11.82024 -20.86284,-18.39015 -34.22184,-15.71631 -6.62017,1.32504 -11.70581,4.0521 -16.50317,8.84946 -6.3331,6.3331 -9.5785,14.03272 -9.5785,22.72472 0,14.79528 10.7584,28.30827 25.11475,31.54514 4.48912,1.01215 12.59306,0.65269 16.77563,-0.7441 z m -1.82121,-95.58252 c 6.24257,-1.59658 9.89922,-3.69001 14.66652,-8.39657 3.45674,-3.41271 4.61826,-4.96458 6.27008,-8.37729 3.39588,-7.016 3.62578,-9.18049 3.43608,-32.35133 l -0.1648,-20.129902 -1.38452,-3.937522 c -2.8815,-8.194878 -8.32603,-14.671249 -15.43982,-18.365972 -8.03819,-4.174825 2.469,-3.813927 -111.03864,-3.813927 -94.655802,0 -100.968279,0.05266 -103.976898,0.867394 -9.339851,2.529226 -16.886464,8.604552 -20.95889,16.872741 -3.355147,6.811901 -3.433795,7.511685 -3.433795,30.552458 0,18.36775 0.09928,21.05727 0.882256,23.8999 3.136348,11.3867 11.967717,20.22864 23.123857,23.15154 3.473991,0.91018 6.822255,0.94136 103.91506,0.96762 98.09179,0.0265 100.40952,0.006 104.10351,-0.93914 z"
     id="path2" />
  <path
     style="opacity:1;fill:#292e42;stroke-width:0.242941;stroke-dasharray:none;fill-opacity:1"
     d="M 59.133782,511.47736 C 43.563536,510.21579 30.430366,504.08696 19.171696,492.82829 9.4517009,483.10831 3.7544062,472.32186 1.1246399,458.66056 0.2911847,454.33087 0.24639076,443.99444 0.24639076,256 0.24639076,70.853591 0.30170509,57.609984 1.0924279,53.438012 3.6657063,39.86101 9.4549483,28.888443 19.171696,19.171696 26.810576,11.532816 34.754366,6.5852878 44.487277,3.4047205 54.722333,0.06005977 43.304537,0.32358499 186.51781,0.12662578 c 86.33837,-0.11873995 131.99693,-0.00763 136.7773,0.33284573 4.34587,0.30952928 9.01712,0.97818429 11.8449,1.69550939 26.1547,6.6346847 45.23108,28.4571611 48.20714,55.1466841 0.74492,6.680486 0.74492,390.716185 0,397.396665 -2.96955,26.6312 -22.07884,48.51868 -48.12969,55.12703 -2.56754,0.6513 -7.58235,1.40654 -11.14401,1.67821 -7.66436,0.58474 -257.705014,0.55995 -264.939668,-0.0262 z M 196.0197,447.93471 c 10.76234,-1.39772 20.00823,-7.92522 24.73168,-17.46029 2.67342,-5.39676 3.63363,-10.05831 3.30505,-16.04516 -0.74638,-13.5995 -8.98985,-24.5194 -22.01601,-29.16398 l -3.20308,-1.14208 -53.2204,-0.13948 c -59.750948,-0.15659 -56.8703,-0.31131 -64.449358,3.46139 -4.76197,2.37041 -10.55271,7.8051 -13.086336,12.28171 -9.931489,17.54773 -1.87087,39.71786 16.92058,46.53879 1.75547,0.6372 4.580932,1.35776 6.2788,1.60124 4.184149,0.60002 100.162664,0.66221 104.739074,0.0679 z m 100.38838,-0.81543 c 4.60257,-1.14743 10.31756,-4.42602 14.03379,-8.05095 10.11735,-9.86878 12.59502,-24.51722 6.33462,-37.45139 -2.66122,-5.49816 -8.74405,-11.71633 -13.94987,-14.26027 -11.6837,-5.70949 -25.03794,-4.41678 -34.73043,3.36196 -7.42606,5.95981 -11.54521,13.81262 -12.18788,23.23517 -1.15437,16.92499 10.90875,31.60948 27.93385,34.00397 3.39513,0.47751 8.70959,0.12289 12.56592,-0.83849 z m -191.9384,-95.99803 c 9.83805,-2.64103 18.16012,-10.40062 21.95942,-20.4752 1.27574,-3.38288 1.39206,-4.252 1.41662,-10.58445 0.0244,-6.28736 -0.0901,-7.21935 -1.29135,-10.5133 -4.67584,-12.82165 -15.53861,-20.92471 -28.982752,-21.61964 -24.815083,-1.28269 -41.448267,24.57418 -30.180335,46.91638 4.217796,8.36311 13.092574,15.01559 22.392943,16.78563 4.176812,0.79492 10.665094,0.56985 14.685454,-0.50942 z m 96.83455,-0.28329 c 5.32874,-1.62382 9.43359,-4.1428 13.60796,-8.35065 9.81087,-9.88958 12.05117,-24.19757 5.78751,-36.96277 -2.91254,-5.93571 -8.46976,-11.49589 -14.26929,-14.27692 -9.64425,-4.62466 -19.5627,-4.60441 -29.02295,0.0593 -3.28552,1.61968 -5.03083,2.91623 -8.13789,6.04545 -6.67133,6.71891 -9.36685,13.36371 -9.31219,22.95565 0.0278,4.87266 0.22798,6.24389 1.42835,9.78281 1.48475,4.37734 3.91098,8.52713 6.95625,11.89788 4.14237,4.58511 11.67925,8.69574 18.03043,9.83383 3.86532,0.69265 10.96388,0.22459 14.93182,-0.98455 z m 96.91156,-0.31093 c 15.25403,-5.04151 24.53239,-20.93957 21.38836,-36.64797 -1.32413,-6.61571 -4.05241,-11.70282 -8.84863,-16.49904 -6.3331,-6.3331 -14.03272,-9.5785 -22.72472,-9.5785 -14.96114,0 -28.51191,10.89667 -31.53834,25.36114 -3.77915,18.06198 7.95219,35.35915 26.24754,38.70043 4.0897,0.7469 10.97084,0.15284 15.47579,-1.33606 z M 102.73081,255.50158 c 7.14,-1.51244 14.14163,-5.87045 18.53436,-11.5363 4.72454,-6.09382 6.83798,-12.25288 6.85074,-19.9646 0.015,-9.07225 -2.83304,-15.93324 -9.34284,-22.50709 -3.38991,-3.42325 -5.01036,-4.63847 -8.39001,-6.29192 -15.740279,-7.70069 -34.849853,-1.64332 -42.739773,13.5477 -2.744005,5.28323 -3.706979,9.22205 -3.720979,15.21983 -0.01382,5.9226 0.933806,9.85394 3.622876,15.02984 6.632657,12.76648 21.003639,19.50667 35.185626,16.50254 z m 96.10653,0.006 c 5.83115,-1.22006 11.22076,-4.22632 15.81692,-8.82249 6.29445,-6.29445 9.54422,-14.02911 9.54422,-22.71585 0,-8.692 -3.2454,-16.39162 -9.5785,-22.72472 -4.79736,-4.79736 -9.883,-7.52442 -16.50317,-8.84946 -15.80032,-3.16248 -31.76333,6.23903 -36.81075,21.67991 -1.81311,5.54658 -1.9149,13.58422 -0.24076,19.01073 2.66524,8.63907 8.79641,15.98105 16.40012,19.63891 6.90737,3.32287 14.23264,4.27673 21.37192,2.78297 z m 98.82376,-0.7373 c 5.04089,-1.68342 9.31082,-4.32572 13.07792,-8.09282 6.37213,-6.37213 9.31615,-13.54821 9.31615,-22.70822 0,-6.2287 -1.12475,-10.70908 -3.98094,-15.85787 -6.55704,-11.82024 -20.86284,-18.39015 -34.22184,-15.71631 -6.62017,1.32504 -11.70581,4.0521 -16.50317,8.84946 -6.3331,6.3331 -9.5785,14.03272 -9.5785,22.72472 0,14.79528 10.7584,28.30827 25.11475,31.54514 4.48912,1.01215 12.59306,0.65269 16.77563,-0.7441 z m -1.82121,-95.58252 c 6.24257,-1.59658 9.89922,-3.69001 14.66652,-8.39657 3.45674,-3.41271 4.61826,-4.96458 6.27008,-8.37729 3.39588,-7.016 3.62578,-9.18049 3.43608,-32.35133 l -0.1648,-20.129902 -1.38452,-3.937522 c -2.8815,-8.194878 -8.32603,-14.671249 -15.43982,-18.365972 -8.03819,-4.174825 2.469,-3.813927 -111.03864,-3.813927 -94.655802,0 -100.968279,0.05266 -103.976898,0.867394 -9.339851,2.529226 -16.886464,8.604552 -20.95889,16.872741 -3.355147,6.811901 -3.433795,7.511685 -3.433795,30.552458 0,18.36775 0.09928,21.05727 0.882256,23.8999 3.136348,11.3867 11.967717,20.22864 23.123857,23.15154 3.473991,0.91018 6.822255,0.94136 103.91506,0.96762 98.09179,0.0265 100.40952,0.006 104.10351,-0.93914 z"
     id="path3" />
  <path
     style="opacity:1;fill:#565f89;fill-opacity:1;stroke-width:0.242941;stroke-dasharray:none"
     d="m 89.193455,255.01782 c -10.279991,-2.30578 -19.737684,-10.75095 -23.151278,-20.67273 -5.363863,-15.59034 2.225282,-32.72264 17.484596,-39.47104 1.450167,-0.64133 4.472876,-1.53812 6.717133,-1.99286 15.305384,-3.10127 31.220084,6.49031 36.047164,21.72516 1.55431,4.90559 1.55726,13.80246 0.006,18.7257 -3.04946,9.67934 -10.96405,17.66104 -20.59564,20.77027 -4.91863,1.58781 -11.807528,1.96985 -16.508185,0.9155 z"
     id="path4" />
  <path
     style="opacity:1;fill:#565f89;fill-opacity:1;stroke-width:0.242941;stroke-dasharray:none"
     d="m 185.28585,255.0203 c -8.94019,-2.01219 -17.68914,-8.91527 -21.58949,-17.03451 -2.07651,-4.32259 -3.54237,-10.12276 -3.54237,-14.01659 0,-3.89383 1.46586,-9.694 3.54237,-14.01659 2.8384,-5.9086 8.34079,-11.39227 14.34944,-14.30063 12.42095,-6.01208 26.28932,-3.76203 36.07425,5.8528 3.70918,3.6447 6.06199,7.348 7.84037,12.34063 1.36015,3.81853 1.49812,4.7608 1.48234,10.12379 -0.0149,5.0714 -0.20514,6.4747 -1.33598,9.85563 -4.21215,12.59335 -15.65179,21.19647 -28.89053,21.72697 -3.02983,0.12141 -5.87748,-0.0694 -7.9304,-0.5315 z"
     id="path5" />
  <path
     style="opacity:1;fill:#565f89;fill-opacity:1;stroke-width:0.242941;stroke-dasharray:none"
     d="m 281.62464,255.02437 c -14.17463,-3.12044 -24.33993,-14.90671 -25.21461,-29.23537 -0.88484,-14.49527 8.88481,-28.12661 23.24348,-32.43104 4.06074,-1.21732 12.69384,-1.21732 16.75457,0 8.41288,2.52201 16.12746,8.95177 19.88472,16.57308 3.54357,7.18781 4.36524,15.47538 2.24837,22.67742 -2.39479,8.14756 -8.92034,15.92669 -16.4661,19.62926 -6.7632,3.31858 -13.72492,4.26721 -20.45043,2.78665 z"
     id="path6" />
  <path
     style="opacity:1;fill:#565f89;fill-opacity:1;stroke-width:0.242941;stroke-dasharray:none"
     d="m 281.62464,351.03701 c -12.06942,-2.5495 -22.13719,-12.66549 -24.69735,-24.81564 -1.57851,-7.49142 0.20757,-16.91789 4.40318,-23.23884 5.81289,-8.75748 14.86165,-13.98259 25.24009,-14.57462 20.02475,-1.14227 36.45515,17.71635 32.54276,37.3522 -2.52371,12.66623 -12.53215,22.79173 -25.02517,25.31787 -4.61025,0.93221 -7.90774,0.92137 -12.46351,-0.041 z"
     id="path7" />
  <path
     style="opacity:1;fill:#565f89;fill-opacity:1;stroke-width:0.242941;stroke-dasharray:none"
     d="m 185.53224,351.03701 c -12.16709,-2.57013 -22.11198,-12.64094 -24.60649,-24.91806 -0.96078,-4.72857 -0.9691,-7.14433 -0.0415,-12.05058 1.75186,-9.2663 8.58056,-18.23612 16.97271,-22.29447 10.20493,-4.93499 20.74681,-4.57671 30.27429,1.02892 11.50599,6.76971 17.72698,20.81566 14.88233,33.60182 -2.742,12.32472 -12.8106,22.25996 -25.01779,24.68638 -4.62456,0.91922 -7.92384,0.90492 -12.46351,-0.054 z"
     id="path8" />
  <path
     style="opacity:1;fill:#565f89;fill-opacity:1;stroke-width:0.242941;stroke-dasharray:none"
     d="m 91.044937,351.36924 c -16.925166,-3.08561 -28.720381,-18.7178 -26.478458,-35.09188 1.065355,-7.78091 3.723923,-13.09867 9.340037,-18.68228 10.355693,-10.29576 25.767574,-12.22281 38.345164,-4.79454 6.03979,3.56707 11.77387,10.81288 13.96905,17.65182 1.43075,4.4574 1.7563,12.00434 0.70999,16.45868 -2.64558,11.26268 -11.24529,20.32135 -22.46104,23.65976 -3.26693,0.97242 -10.206545,1.38516 -13.424743,0.79844 z"
     id="path9" />
  <path
     style="opacity:1;fill:#565f89;fill-opacity:1;stroke-width:0.242941;stroke-dasharray:none"
     d="m 91.903754,447.45352 c -10.306088,-1.58621 -19.201692,-7.78141 -23.751507,-16.54138 -2.808729,-5.40777 -3.752552,-9.26628 -3.730505,-15.25093 0.03252,-8.82716 3.298594,-16.21989 9.984511,-22.59987 4.271125,-4.07567 9.353427,-6.84479 14.604432,-7.9573 2.83943,-0.60157 11.743325,-0.71872 55.172275,-0.7259 50.06364,-0.008 51.91371,0.024 55.61226,0.96993 5.58234,1.42772 10.24548,4.08543 14.30768,8.15452 5.98338,5.99354 9.01636,12.6047 9.46664,20.63504 0.84088,14.99629 -8.88516,28.37953 -23.74663,32.67589 -2.71271,0.78422 -7.18572,0.86154 -54.20597,0.93698 -28.1871,0.0452 -52.358037,-0.0884 -53.713186,-0.29698 z"
     id="path10" />
  <path
     style="opacity:1;fill:#565f89;fill-opacity:1;stroke-width:0.242941;stroke-dasharray:none"
     d="m 283.61337,447.39006 c -7.10919,-1.03565 -12.73753,-3.93437 -18.06358,-9.30314 -15.30014,-15.42288 -11.03351,-40.59522 8.55817,-50.49165 4.76769,-2.40833 9.76138,-3.40586 15.58504,-3.11324 13.00043,0.65323 23.97217,8.95939 28.25766,21.39247 6.4845,18.81281 -5.96232,38.75607 -25.9206,41.53201 -4.2355,0.5891 -4.26025,0.58905 -8.41669,-0.0165 z"
     id="path11" />
  <path
     style="opacity:1;fill:#565f89;fill-opacity:1;stroke-width:0.242941;stroke-dasharray:none"
     d="M 89.932628,159.16191 C 78.733288,156.90537 69.473232,148.54532 65.650307,137.23965 l -1.333043,-3.94225 -0.0046,-20.94321 c -0.0052,-23.652963 0.02865,-23.928892 3.839621,-31.266329 3.866848,-7.445019 11.442718,-13.441662 20.055645,-15.874951 3.060414,-0.864616 7.6806,-0.904922 103.73051,-0.904922 95.08243,0 100.70093,0.04779 103.73051,0.882256 12.04323,3.317181 21.03179,12.843903 23.41624,24.818197 0.67769,3.403289 0.77479,7.060052 0.63456,23.899909 l -0.16556,19.88183 -1.31892,3.74335 c -1.84593,5.23911 -4.34605,9.277 -7.9742,12.87892 -3.64113,3.61481 -7.193,5.84958 -12.20972,7.68211 l -3.61435,1.32026 -101.2666,0.0721 c -55.69664,0.0397 -102.153615,-0.1066 -103.237734,-0.32504 z"
     id="path12" />
</svg>
